<mxfile host="app.diagrams.net" modified="2023-09-13T14:41:17.694Z" agent="Mozilla/5.0 (Windows NT 10.0; Win64; x64) AppleWebKit/537.36 (KHTML, like Gecko) Chrome/114.0.0.0 YaBrowser/23.7.5.704 Yowser/2.5 Safari/537.36" etag="QMSyYtmD_AdxLfu5a3L_" version="21.7.5" type="device">
  <diagram id="C5RBs43oDa-KdzZeNtuy" name="Page-1">
    <mxGraphModel dx="1643" dy="705" grid="1" gridSize="12" guides="1" tooltips="1" connect="1" arrows="0" fold="1" page="1" pageScale="1" pageWidth="827" pageHeight="1169" background="#f5f4f4" math="0" shadow="1">
      <root>
        <mxCell id="WIyWlLk6GJQsqaUBKTNV-0" />
        <mxCell id="WIyWlLk6GJQsqaUBKTNV-1" parent="WIyWlLk6GJQsqaUBKTNV-0" />
        <mxCell id="HwW4HolEN2n57jUtP8S4-10" style="edgeStyle=orthogonalEdgeStyle;rounded=0;orthogonalLoop=1;jettySize=auto;html=1;exitX=0.5;exitY=1;exitDx=0;exitDy=0;entryX=0.5;entryY=0;entryDx=0;entryDy=0;" edge="1" parent="WIyWlLk6GJQsqaUBKTNV-1" source="WIyWlLk6GJQsqaUBKTNV-3" target="HwW4HolEN2n57jUtP8S4-9">
          <mxGeometry relative="1" as="geometry" />
        </mxCell>
        <mxCell id="HwW4HolEN2n57jUtP8S4-29" style="edgeStyle=orthogonalEdgeStyle;rounded=0;orthogonalLoop=1;jettySize=auto;html=1;exitX=1;exitY=0.5;exitDx=0;exitDy=0;entryX=0;entryY=0.5;entryDx=0;entryDy=0;" edge="1" parent="WIyWlLk6GJQsqaUBKTNV-1" source="WIyWlLk6GJQsqaUBKTNV-3" target="HwW4HolEN2n57jUtP8S4-6">
          <mxGeometry relative="1" as="geometry" />
        </mxCell>
        <mxCell id="WIyWlLk6GJQsqaUBKTNV-3" value="/start" style="rounded=1;whiteSpace=wrap;html=1;fontSize=12;glass=0;strokeWidth=1;shadow=0;labelBackgroundColor=none;fillColor=#B2C9AB;strokeColor=#788AA3;fontColor=#46495D;" parent="WIyWlLk6GJQsqaUBKTNV-1" vertex="1">
          <mxGeometry x="36" y="28" width="120" height="40" as="geometry" />
        </mxCell>
        <mxCell id="LpWc5lkLf9JbCJff_aTS-66" style="edgeStyle=orthogonalEdgeStyle;rounded=0;orthogonalLoop=1;jettySize=auto;html=1;exitX=0.5;exitY=1;exitDx=0;exitDy=0;entryX=0.5;entryY=0;entryDx=0;entryDy=0;" parent="WIyWlLk6GJQsqaUBKTNV-1" source="WIyWlLk6GJQsqaUBKTNV-10" target="LpWc5lkLf9JbCJff_aTS-1" edge="1">
          <mxGeometry relative="1" as="geometry" />
        </mxCell>
        <mxCell id="WIyWlLk6GJQsqaUBKTNV-10" value="Ваше имя" style="rhombus;whiteSpace=wrap;html=1;shadow=0;fontFamily=Helvetica;fontSize=12;align=center;strokeWidth=1;spacing=6;spacingTop=-4;labelBackgroundColor=none;fillColor=#f8cecc;strokeColor=#b85450;rounded=1;" parent="WIyWlLk6GJQsqaUBKTNV-1" vertex="1">
          <mxGeometry x="46" y="328" width="100" height="80" as="geometry" />
        </mxCell>
        <mxCell id="HwW4HolEN2n57jUtP8S4-34" style="edgeStyle=orthogonalEdgeStyle;rounded=0;orthogonalLoop=1;jettySize=auto;html=1;exitX=0.5;exitY=1;exitDx=0;exitDy=0;entryX=0.5;entryY=0;entryDx=0;entryDy=0;" edge="1" parent="WIyWlLk6GJQsqaUBKTNV-1" source="LpWc5lkLf9JbCJff_aTS-1" target="LpWc5lkLf9JbCJff_aTS-14">
          <mxGeometry relative="1" as="geometry" />
        </mxCell>
        <mxCell id="LpWc5lkLf9JbCJff_aTS-1" value="Ваша фамилия" style="rhombus;whiteSpace=wrap;html=1;fillColor=#f8cecc;strokeColor=#b85450;rounded=1;glass=0;strokeWidth=1;shadow=0;labelBackgroundColor=none;" parent="WIyWlLk6GJQsqaUBKTNV-1" vertex="1">
          <mxGeometry x="48" y="420" width="96" height="96" as="geometry" />
        </mxCell>
        <mxCell id="LpWc5lkLf9JbCJff_aTS-22" value="" style="edgeStyle=orthogonalEdgeStyle;rounded=0;orthogonalLoop=1;jettySize=auto;html=1;" parent="WIyWlLk6GJQsqaUBKTNV-1" source="LpWc5lkLf9JbCJff_aTS-14" target="LpWc5lkLf9JbCJff_aTS-21" edge="1">
          <mxGeometry relative="1" as="geometry" />
        </mxCell>
        <mxCell id="LpWc5lkLf9JbCJff_aTS-14" value="Контакт в телеграмм для связи(Никнейм)" style="rhombus;whiteSpace=wrap;html=1;fillColor=#f8cecc;strokeColor=#b85450;rounded=1;glass=0;strokeWidth=1;shadow=0;labelBackgroundColor=none;" parent="WIyWlLk6GJQsqaUBKTNV-1" vertex="1">
          <mxGeometry x="17" y="540" width="158" height="148" as="geometry" />
        </mxCell>
        <mxCell id="HwW4HolEN2n57jUtP8S4-20" style="edgeStyle=orthogonalEdgeStyle;rounded=0;orthogonalLoop=1;jettySize=auto;html=1;exitX=0;exitY=0.5;exitDx=0;exitDy=0;entryX=0;entryY=0.5;entryDx=0;entryDy=0;" edge="1" parent="WIyWlLk6GJQsqaUBKTNV-1" source="LpWc5lkLf9JbCJff_aTS-21" target="WIyWlLk6GJQsqaUBKTNV-10">
          <mxGeometry relative="1" as="geometry" />
        </mxCell>
        <mxCell id="HwW4HolEN2n57jUtP8S4-23" style="edgeStyle=orthogonalEdgeStyle;rounded=0;orthogonalLoop=1;jettySize=auto;html=1;exitX=0.5;exitY=1;exitDx=0;exitDy=0;" edge="1" parent="WIyWlLk6GJQsqaUBKTNV-1" source="LpWc5lkLf9JbCJff_aTS-21" target="HwW4HolEN2n57jUtP8S4-22">
          <mxGeometry relative="1" as="geometry" />
        </mxCell>
        <mxCell id="LpWc5lkLf9JbCJff_aTS-21" value="Выводится анкета исходя из обработанных данных&amp;nbsp;" style="whiteSpace=wrap;html=1;fillColor=#0050ef;strokeColor=#001DBC;fontColor=#ffffff;rounded=1;glass=0;strokeWidth=1;shadow=0;labelBackgroundColor=none;" parent="WIyWlLk6GJQsqaUBKTNV-1" vertex="1">
          <mxGeometry x="36" y="756" width="120" height="132" as="geometry" />
        </mxCell>
        <mxCell id="HwW4HolEN2n57jUtP8S4-39" style="edgeStyle=orthogonalEdgeStyle;rounded=0;orthogonalLoop=1;jettySize=auto;html=1;exitX=1;exitY=0.25;exitDx=0;exitDy=0;entryX=0.5;entryY=0;entryDx=0;entryDy=0;" edge="1" parent="WIyWlLk6GJQsqaUBKTNV-1" source="LpWc5lkLf9JbCJff_aTS-39" target="HwW4HolEN2n57jUtP8S4-36">
          <mxGeometry relative="1" as="geometry" />
        </mxCell>
        <mxCell id="HwW4HolEN2n57jUtP8S4-40" style="edgeStyle=orthogonalEdgeStyle;rounded=0;orthogonalLoop=1;jettySize=auto;html=1;exitX=0;exitY=0.25;exitDx=0;exitDy=0;entryX=0.5;entryY=0;entryDx=0;entryDy=0;" edge="1" parent="WIyWlLk6GJQsqaUBKTNV-1" source="LpWc5lkLf9JbCJff_aTS-39" target="HwW4HolEN2n57jUtP8S4-37">
          <mxGeometry relative="1" as="geometry" />
        </mxCell>
        <mxCell id="LpWc5lkLf9JbCJff_aTS-39" value="Бот определяет пару Студент -рекрутер&lt;br&gt;" style="whiteSpace=wrap;html=1;fillColor=#0050ef;strokeColor=#001DBC;fontColor=#ffffff;rounded=1;glass=0;strokeWidth=1;shadow=0;labelBackgroundColor=none;" parent="WIyWlLk6GJQsqaUBKTNV-1" vertex="1">
          <mxGeometry x="166.5" y="1188" width="125" height="60" as="geometry" />
        </mxCell>
        <mxCell id="LpWc5lkLf9JbCJff_aTS-44" value="изменить анкету&lt;br&gt;" style="text;html=1;align=center;verticalAlign=middle;resizable=0;points=[];autosize=1;strokeColor=none;fillColor=none;rotation=-90;" parent="WIyWlLk6GJQsqaUBKTNV-1" vertex="1">
          <mxGeometry x="-64" y="688" width="120" height="24" as="geometry" />
        </mxCell>
        <mxCell id="LpWc5lkLf9JbCJff_aTS-45" value="ввод имени" style="text;html=1;align=center;verticalAlign=middle;resizable=0;points=[];autosize=1;strokeColor=none;fillColor=none;" parent="WIyWlLk6GJQsqaUBKTNV-1" vertex="1">
          <mxGeometry x="90" y="396" width="96" height="24" as="geometry" />
        </mxCell>
        <mxCell id="LpWc5lkLf9JbCJff_aTS-46" value="ввод фамилии&lt;br&gt;" style="text;html=1;align=center;verticalAlign=middle;resizable=0;points=[];autosize=1;strokeColor=none;fillColor=none;" parent="WIyWlLk6GJQsqaUBKTNV-1" vertex="1">
          <mxGeometry x="90" y="516" width="108" height="24" as="geometry" />
        </mxCell>
        <mxCell id="LpWc5lkLf9JbCJff_aTS-48" value="ввод никнейма&lt;br&gt;" style="text;html=1;align=center;verticalAlign=middle;resizable=0;points=[];autosize=1;strokeColor=none;fillColor=none;" parent="WIyWlLk6GJQsqaUBKTNV-1" vertex="1">
          <mxGeometry x="84" y="712" width="108" height="24" as="geometry" />
        </mxCell>
        <mxCell id="HwW4HolEN2n57jUtP8S4-53" style="edgeStyle=orthogonalEdgeStyle;rounded=0;orthogonalLoop=1;jettySize=auto;html=1;exitX=1;exitY=0.25;exitDx=0;exitDy=0;" edge="1" parent="WIyWlLk6GJQsqaUBKTNV-1" source="LpWc5lkLf9JbCJff_aTS-51">
          <mxGeometry relative="1" as="geometry">
            <mxPoint x="144" y="1419" as="targetPoint" />
          </mxGeometry>
        </mxCell>
        <mxCell id="HwW4HolEN2n57jUtP8S4-54" style="edgeStyle=orthogonalEdgeStyle;rounded=0;orthogonalLoop=1;jettySize=auto;html=1;exitX=0.5;exitY=1;exitDx=0;exitDy=0;entryX=0.5;entryY=0;entryDx=0;entryDy=0;" edge="1" parent="WIyWlLk6GJQsqaUBKTNV-1" source="LpWc5lkLf9JbCJff_aTS-51" target="HwW4HolEN2n57jUtP8S4-49">
          <mxGeometry relative="1" as="geometry" />
        </mxCell>
        <mxCell id="LpWc5lkLf9JbCJff_aTS-51" value="Через 5 дней отправка сообщения с вопросом о том, удалось ли встретиться и пообщаться?" style="rounded=1;whiteSpace=wrap;html=1;fillColor=#0050ef;strokeColor=#001DBC;fontColor=#ffffff;" parent="WIyWlLk6GJQsqaUBKTNV-1" vertex="1">
          <mxGeometry x="-1" y="1392" width="122" height="108" as="geometry" />
        </mxCell>
        <mxCell id="HwW4HolEN2n57jUtP8S4-56" style="edgeStyle=orthogonalEdgeStyle;rounded=0;orthogonalLoop=1;jettySize=auto;html=1;exitX=1;exitY=0.5;exitDx=0;exitDy=0;entryX=1;entryY=0.5;entryDx=0;entryDy=0;" edge="1" parent="WIyWlLk6GJQsqaUBKTNV-1" source="LpWc5lkLf9JbCJff_aTS-56" target="HwW4HolEN2n57jUtP8S4-32">
          <mxGeometry relative="1" as="geometry">
            <Array as="points">
              <mxPoint x="720" y="1782" />
              <mxPoint x="720" y="1098" />
            </Array>
          </mxGeometry>
        </mxCell>
        <mxCell id="HwW4HolEN2n57jUtP8S4-65" style="edgeStyle=orthogonalEdgeStyle;rounded=0;orthogonalLoop=1;jettySize=auto;html=1;exitX=0;exitY=0.5;exitDx=0;exitDy=0;entryX=0;entryY=0.5;entryDx=0;entryDy=0;" edge="1" parent="WIyWlLk6GJQsqaUBKTNV-1" source="LpWc5lkLf9JbCJff_aTS-56" target="HwW4HolEN2n57jUtP8S4-32">
          <mxGeometry relative="1" as="geometry" />
        </mxCell>
        <mxCell id="LpWc5lkLf9JbCJff_aTS-56" value="Сообщение &quot;Спасибо большое за участие. Оставить обратную связь можно в канале communication в своей когорте. Если тебе захочется поучаствовать еще раз, просто нажми на кнопку go&lt;br&gt;Если не готов нажми &quot;В следующий раз&quot;" style="rounded=1;whiteSpace=wrap;html=1;fillColor=#0050EF;fontColor=#ffffff;strokeColor=#001DBC;" parent="WIyWlLk6GJQsqaUBKTNV-1" vertex="1">
          <mxGeometry x="4" y="1656" width="132" height="252" as="geometry" />
        </mxCell>
        <mxCell id="HwW4HolEN2n57jUtP8S4-61" style="edgeStyle=orthogonalEdgeStyle;rounded=0;orthogonalLoop=1;jettySize=auto;html=1;exitX=1;exitY=0.5;exitDx=0;exitDy=0;entryX=0;entryY=0.5;entryDx=0;entryDy=0;" edge="1" parent="WIyWlLk6GJQsqaUBKTNV-1" source="LpWc5lkLf9JbCJff_aTS-57" target="HwW4HolEN2n57jUtP8S4-58">
          <mxGeometry relative="1" as="geometry">
            <mxPoint x="432" y="1420" as="targetPoint" />
          </mxGeometry>
        </mxCell>
        <mxCell id="HwW4HolEN2n57jUtP8S4-63" style="edgeStyle=orthogonalEdgeStyle;rounded=0;orthogonalLoop=1;jettySize=auto;html=1;exitX=0.5;exitY=1;exitDx=0;exitDy=0;" edge="1" parent="WIyWlLk6GJQsqaUBKTNV-1" source="LpWc5lkLf9JbCJff_aTS-57" target="HwW4HolEN2n57jUtP8S4-57">
          <mxGeometry relative="1" as="geometry" />
        </mxCell>
        <mxCell id="LpWc5lkLf9JbCJff_aTS-57" value="Попробовать еще раз?" style="rounded=1;whiteSpace=wrap;html=1;fillColor=#0050ef;strokeColor=#001DBC;fontColor=#ffffff;" parent="WIyWlLk6GJQsqaUBKTNV-1" vertex="1">
          <mxGeometry x="266" y="1372" width="84" height="96" as="geometry" />
        </mxCell>
        <mxCell id="HwW4HolEN2n57jUtP8S4-0" value="/support&lt;br&gt;команда для вывода ссылки на форму с обращением к поддержке" style="rounded=1;whiteSpace=wrap;html=1;fillColor=#b2c9ab;" vertex="1" parent="WIyWlLk6GJQsqaUBKTNV-1">
          <mxGeometry x="350" width="120" height="108" as="geometry" />
        </mxCell>
        <mxCell id="HwW4HolEN2n57jUtP8S4-31" style="edgeStyle=orthogonalEdgeStyle;rounded=0;orthogonalLoop=1;jettySize=auto;html=1;exitX=1;exitY=0.5;exitDx=0;exitDy=0;" edge="1" parent="WIyWlLk6GJQsqaUBKTNV-1" source="HwW4HolEN2n57jUtP8S4-6">
          <mxGeometry relative="1" as="geometry">
            <mxPoint x="348" y="48" as="targetPoint" />
          </mxGeometry>
        </mxCell>
        <mxCell id="HwW4HolEN2n57jUtP8S4-6" value="/help&lt;br&gt;Выводится сообщение о назначении бота и список команд" style="rounded=1;whiteSpace=wrap;html=1;fontSize=12;glass=0;strokeWidth=1;shadow=0;labelBackgroundColor=none;fillColor=#B2C9AB;strokeColor=#788AA3;fontColor=#46495D;" vertex="1" parent="WIyWlLk6GJQsqaUBKTNV-1">
          <mxGeometry x="204" y="12" width="120" height="72" as="geometry" />
        </mxCell>
        <mxCell id="HwW4HolEN2n57jUtP8S4-19" style="edgeStyle=orthogonalEdgeStyle;rounded=0;orthogonalLoop=1;jettySize=auto;html=1;exitX=0.5;exitY=1;exitDx=0;exitDy=0;entryX=0.5;entryY=0;entryDx=0;entryDy=0;" edge="1" parent="WIyWlLk6GJQsqaUBKTNV-1" source="HwW4HolEN2n57jUtP8S4-8" target="WIyWlLk6GJQsqaUBKTNV-10">
          <mxGeometry relative="1" as="geometry" />
        </mxCell>
        <mxCell id="HwW4HolEN2n57jUtP8S4-8" value="GO" style="rhombus;whiteSpace=wrap;html=1;fillColor=#f8cecc;strokeColor=#b85450;" vertex="1" parent="WIyWlLk6GJQsqaUBKTNV-1">
          <mxGeometry x="56" y="228" width="80" height="80" as="geometry" />
        </mxCell>
        <mxCell id="HwW4HolEN2n57jUtP8S4-13" style="edgeStyle=orthogonalEdgeStyle;rounded=0;orthogonalLoop=1;jettySize=auto;html=1;exitX=0.5;exitY=1;exitDx=0;exitDy=0;entryX=0.5;entryY=0;entryDx=0;entryDy=0;" edge="1" parent="WIyWlLk6GJQsqaUBKTNV-1" source="HwW4HolEN2n57jUtP8S4-9" target="HwW4HolEN2n57jUtP8S4-8">
          <mxGeometry relative="1" as="geometry" />
        </mxCell>
        <mxCell id="HwW4HolEN2n57jUtP8S4-15" style="edgeStyle=orthogonalEdgeStyle;rounded=0;orthogonalLoop=1;jettySize=auto;html=1;exitX=1;exitY=0.5;exitDx=0;exitDy=0;entryX=0;entryY=0.5;entryDx=0;entryDy=0;" edge="1" parent="WIyWlLk6GJQsqaUBKTNV-1" source="HwW4HolEN2n57jUtP8S4-9" target="HwW4HolEN2n57jUtP8S4-14">
          <mxGeometry relative="1" as="geometry" />
        </mxCell>
        <mxCell id="HwW4HolEN2n57jUtP8S4-9" value="Выбор студент или рекрутер&lt;br&gt;(Профессия)" style="rhombus;whiteSpace=wrap;html=1;fillColor=#f8cecc;strokeColor=#b85450;" vertex="1" parent="WIyWlLk6GJQsqaUBKTNV-1">
          <mxGeometry x="17" y="100" width="158" height="108" as="geometry" />
        </mxCell>
        <mxCell id="HwW4HolEN2n57jUtP8S4-14" value="В следующий раз" style="rhombus;whiteSpace=wrap;html=1;fillColor=#f8cecc;strokeColor=#b85450;" vertex="1" parent="WIyWlLk6GJQsqaUBKTNV-1">
          <mxGeometry x="312" y="240" width="120" height="80" as="geometry" />
        </mxCell>
        <mxCell id="HwW4HolEN2n57jUtP8S4-27" style="edgeStyle=orthogonalEdgeStyle;rounded=0;orthogonalLoop=1;jettySize=auto;html=1;exitX=1;exitY=0.5;exitDx=0;exitDy=0;entryX=0;entryY=0.5;entryDx=0;entryDy=0;" edge="1" parent="WIyWlLk6GJQsqaUBKTNV-1" source="HwW4HolEN2n57jUtP8S4-22" target="HwW4HolEN2n57jUtP8S4-25">
          <mxGeometry relative="1" as="geometry" />
        </mxCell>
        <mxCell id="HwW4HolEN2n57jUtP8S4-22" value="Все верно?" style="rhombus;whiteSpace=wrap;html=1;fillColor=#f8cecc;" vertex="1" parent="WIyWlLk6GJQsqaUBKTNV-1">
          <mxGeometry x="50" y="938" width="92" height="82" as="geometry" />
        </mxCell>
        <mxCell id="HwW4HolEN2n57jUtP8S4-28" style="edgeStyle=orthogonalEdgeStyle;rounded=0;orthogonalLoop=1;jettySize=auto;html=1;exitX=1;exitY=0.5;exitDx=0;exitDy=0;" edge="1" parent="WIyWlLk6GJQsqaUBKTNV-1" source="HwW4HolEN2n57jUtP8S4-25">
          <mxGeometry relative="1" as="geometry">
            <mxPoint x="372" y="324" as="targetPoint" />
          </mxGeometry>
        </mxCell>
        <mxCell id="HwW4HolEN2n57jUtP8S4-33" style="edgeStyle=orthogonalEdgeStyle;rounded=0;orthogonalLoop=1;jettySize=auto;html=1;exitX=0.5;exitY=1;exitDx=0;exitDy=0;" edge="1" parent="WIyWlLk6GJQsqaUBKTNV-1" source="HwW4HolEN2n57jUtP8S4-25" target="HwW4HolEN2n57jUtP8S4-32">
          <mxGeometry relative="1" as="geometry" />
        </mxCell>
        <mxCell id="HwW4HolEN2n57jUtP8S4-25" value="Начать поиск пары?" style="rhombus;whiteSpace=wrap;html=1;fillColor=#f8cecc;" vertex="1" parent="WIyWlLk6GJQsqaUBKTNV-1">
          <mxGeometry x="175" y="933" width="108" height="92" as="geometry" />
        </mxCell>
        <mxCell id="HwW4HolEN2n57jUtP8S4-35" style="edgeStyle=orthogonalEdgeStyle;rounded=0;orthogonalLoop=1;jettySize=auto;html=1;exitX=0.5;exitY=1;exitDx=0;exitDy=0;entryX=0.5;entryY=0;entryDx=0;entryDy=0;" edge="1" parent="WIyWlLk6GJQsqaUBKTNV-1" source="HwW4HolEN2n57jUtP8S4-32" target="LpWc5lkLf9JbCJff_aTS-39">
          <mxGeometry relative="1" as="geometry" />
        </mxCell>
        <mxCell id="HwW4HolEN2n57jUtP8S4-32" value="GO" style="rhombus;whiteSpace=wrap;html=1;fillColor=#f8cecc;" vertex="1" parent="WIyWlLk6GJQsqaUBKTNV-1">
          <mxGeometry x="182" y="1056" width="94" height="84" as="geometry" />
        </mxCell>
        <mxCell id="HwW4HolEN2n57jUtP8S4-43" style="edgeStyle=orthogonalEdgeStyle;rounded=0;orthogonalLoop=1;jettySize=auto;html=1;exitX=1;exitY=0.75;exitDx=0;exitDy=0;entryX=-0.047;entryY=0.5;entryDx=0;entryDy=0;entryPerimeter=0;" edge="1" parent="WIyWlLk6GJQsqaUBKTNV-1" source="HwW4HolEN2n57jUtP8S4-36" target="HwW4HolEN2n57jUtP8S4-42">
          <mxGeometry relative="1" as="geometry" />
        </mxCell>
        <mxCell id="HwW4HolEN2n57jUtP8S4-44" style="edgeStyle=orthogonalEdgeStyle;rounded=0;orthogonalLoop=1;jettySize=auto;html=1;exitX=1;exitY=0.25;exitDx=0;exitDy=0;entryX=1;entryY=0.5;entryDx=0;entryDy=0;" edge="1" parent="WIyWlLk6GJQsqaUBKTNV-1" source="HwW4HolEN2n57jUtP8S4-36" target="HwW4HolEN2n57jUtP8S4-14">
          <mxGeometry relative="1" as="geometry">
            <Array as="points">
              <mxPoint x="528" y="1254" />
              <mxPoint x="528" y="280" />
            </Array>
          </mxGeometry>
        </mxCell>
        <mxCell id="HwW4HolEN2n57jUtP8S4-36" value="Нет пары: &quot;К сожалению, прямо сейчас я не смог подобрать тебе пару, но как только у меня появится кандидат, сразу тебе напишу" style="rounded=1;whiteSpace=wrap;html=1;fillColor=#0050ef;fontColor=#ffffff;strokeColor=#001DBC;" vertex="1" parent="WIyWlLk6GJQsqaUBKTNV-1">
          <mxGeometry x="350" y="1224" width="120" height="120" as="geometry" />
        </mxCell>
        <mxCell id="HwW4HolEN2n57jUtP8S4-46" style="edgeStyle=orthogonalEdgeStyle;rounded=0;orthogonalLoop=1;jettySize=auto;html=1;exitX=0.5;exitY=1;exitDx=0;exitDy=0;" edge="1" parent="WIyWlLk6GJQsqaUBKTNV-1" source="HwW4HolEN2n57jUtP8S4-37" target="LpWc5lkLf9JbCJff_aTS-51">
          <mxGeometry relative="1" as="geometry" />
        </mxCell>
        <mxCell id="HwW4HolEN2n57jUtP8S4-37" value="Если есть пара выводится его анкета и предложение написать собеседнику для назначения встречи и для связи" style="rounded=1;whiteSpace=wrap;html=1;fillColor=#0050ef;fontColor=#ffffff;strokeColor=#001DBC;" vertex="1" parent="WIyWlLk6GJQsqaUBKTNV-1">
          <mxGeometry y="1224" width="120" height="132" as="geometry" />
        </mxCell>
        <mxCell id="HwW4HolEN2n57jUtP8S4-45" style="edgeStyle=orthogonalEdgeStyle;rounded=0;orthogonalLoop=1;jettySize=auto;html=1;exitX=0.5;exitY=0;exitDx=0;exitDy=0;entryX=0.644;entryY=0.017;entryDx=0;entryDy=0;entryPerimeter=0;" edge="1" parent="WIyWlLk6GJQsqaUBKTNV-1" source="HwW4HolEN2n57jUtP8S4-42" target="LpWc5lkLf9JbCJff_aTS-39">
          <mxGeometry relative="1" as="geometry" />
        </mxCell>
        <mxCell id="HwW4HolEN2n57jUtP8S4-42" value="Попробовать еще раз" style="rhombus;whiteSpace=wrap;html=1;fillColor=#f8cecc;" vertex="1" parent="WIyWlLk6GJQsqaUBKTNV-1">
          <mxGeometry x="528" y="1260" width="128" height="108" as="geometry" />
        </mxCell>
        <mxCell id="HwW4HolEN2n57jUtP8S4-55" style="edgeStyle=orthogonalEdgeStyle;rounded=0;orthogonalLoop=1;jettySize=auto;html=1;exitX=0.5;exitY=1;exitDx=0;exitDy=0;entryX=0.424;entryY=0;entryDx=0;entryDy=0;entryPerimeter=0;" edge="1" parent="WIyWlLk6GJQsqaUBKTNV-1" source="HwW4HolEN2n57jUtP8S4-49" target="LpWc5lkLf9JbCJff_aTS-56">
          <mxGeometry relative="1" as="geometry" />
        </mxCell>
        <mxCell id="HwW4HolEN2n57jUtP8S4-49" value="да" style="rhombus;whiteSpace=wrap;html=1;fillColor=#f8cecc;" vertex="1" parent="WIyWlLk6GJQsqaUBKTNV-1">
          <mxGeometry x="20" y="1548" width="80" height="80" as="geometry" />
        </mxCell>
        <mxCell id="HwW4HolEN2n57jUtP8S4-52" style="edgeStyle=orthogonalEdgeStyle;rounded=0;orthogonalLoop=1;jettySize=auto;html=1;exitX=1;exitY=0.5;exitDx=0;exitDy=0;" edge="1" parent="WIyWlLk6GJQsqaUBKTNV-1" source="HwW4HolEN2n57jUtP8S4-50" target="LpWc5lkLf9JbCJff_aTS-57">
          <mxGeometry relative="1" as="geometry" />
        </mxCell>
        <mxCell id="HwW4HolEN2n57jUtP8S4-50" value="нет" style="rhombus;whiteSpace=wrap;html=1;fillColor=#f8cecc;" vertex="1" parent="WIyWlLk6GJQsqaUBKTNV-1">
          <mxGeometry x="146" y="1380" width="80" height="80" as="geometry" />
        </mxCell>
        <mxCell id="HwW4HolEN2n57jUtP8S4-64" style="edgeStyle=orthogonalEdgeStyle;rounded=0;orthogonalLoop=1;jettySize=auto;html=1;exitX=0;exitY=0.5;exitDx=0;exitDy=0;entryX=0.588;entryY=1;entryDx=0;entryDy=0;entryPerimeter=0;" edge="1" parent="WIyWlLk6GJQsqaUBKTNV-1" source="HwW4HolEN2n57jUtP8S4-57" target="LpWc5lkLf9JbCJff_aTS-39">
          <mxGeometry relative="1" as="geometry" />
        </mxCell>
        <mxCell id="HwW4HolEN2n57jUtP8S4-57" value="да" style="rhombus;whiteSpace=wrap;html=1;fillColor=#f8cecc;" vertex="1" parent="WIyWlLk6GJQsqaUBKTNV-1">
          <mxGeometry x="268" y="1500" width="80" height="80" as="geometry" />
        </mxCell>
        <mxCell id="HwW4HolEN2n57jUtP8S4-62" style="edgeStyle=orthogonalEdgeStyle;rounded=0;orthogonalLoop=1;jettySize=auto;html=1;exitX=0.5;exitY=0;exitDx=0;exitDy=0;" edge="1" parent="WIyWlLk6GJQsqaUBKTNV-1" source="HwW4HolEN2n57jUtP8S4-58">
          <mxGeometry relative="1" as="geometry">
            <mxPoint x="432" y="276" as="targetPoint" />
            <Array as="points">
              <mxPoint x="488" y="276" />
            </Array>
          </mxGeometry>
        </mxCell>
        <mxCell id="HwW4HolEN2n57jUtP8S4-58" value="нет" style="rhombus;whiteSpace=wrap;html=1;fillColor=#f8cecc;" vertex="1" parent="WIyWlLk6GJQsqaUBKTNV-1">
          <mxGeometry x="448" y="1380" width="80" height="80" as="geometry" />
        </mxCell>
        <mxCell id="HwW4HolEN2n57jUtP8S4-70" value="" style="rounded=1;whiteSpace=wrap;html=1;fillColor=#b2c9ab;" vertex="1" parent="WIyWlLk6GJQsqaUBKTNV-1">
          <mxGeometry x="588" y="12" width="36" height="12" as="geometry" />
        </mxCell>
        <mxCell id="HwW4HolEN2n57jUtP8S4-76" value="" style="rhombus;whiteSpace=wrap;html=1;fillColor=#f8cecc;" vertex="1" parent="WIyWlLk6GJQsqaUBKTNV-1">
          <mxGeometry x="592.5" y="48" width="30" height="12" as="geometry" />
        </mxCell>
        <mxCell id="HwW4HolEN2n57jUtP8S4-77" value="" style="rounded=1;whiteSpace=wrap;html=1;fillColor=#004fef;" vertex="1" parent="WIyWlLk6GJQsqaUBKTNV-1">
          <mxGeometry x="591" y="92" width="33" height="16" as="geometry" />
        </mxCell>
        <mxCell id="HwW4HolEN2n57jUtP8S4-78" value="Команды" style="text;html=1;align=center;verticalAlign=middle;resizable=0;points=[];autosize=1;strokeColor=none;fillColor=none;" vertex="1" parent="WIyWlLk6GJQsqaUBKTNV-1">
          <mxGeometry x="624" y="6" width="72" height="24" as="geometry" />
        </mxCell>
        <mxCell id="HwW4HolEN2n57jUtP8S4-82" value="Кнопки" style="text;html=1;align=center;verticalAlign=middle;resizable=0;points=[];autosize=1;strokeColor=none;fillColor=none;" vertex="1" parent="WIyWlLk6GJQsqaUBKTNV-1">
          <mxGeometry x="630" y="44" width="60" height="24" as="geometry" />
        </mxCell>
        <mxCell id="HwW4HolEN2n57jUtP8S4-83" value="Информационные сообщения" style="text;html=1;align=center;verticalAlign=middle;resizable=0;points=[];autosize=1;strokeColor=none;fillColor=none;" vertex="1" parent="WIyWlLk6GJQsqaUBKTNV-1">
          <mxGeometry x="622.5" y="88" width="192" height="24" as="geometry" />
        </mxCell>
      </root>
    </mxGraphModel>
  </diagram>
</mxfile>
